<?xml version="1.0" encoding="utf-8"?>
<!-- Generator: Adobe Illustrator 24.0.2, SVG Export Plug-In . SVG Version: 6.00 Build 0)  -->
<svg version="1.1" id="Capa_1" xmlns="http://www.w3.org/2000/svg" xmlns:xlink="http://www.w3.org/1999/xlink" x="0px" y="0px"
	 viewBox="0 0 108 35" style="enable-background:new 0 0 108 35;" xml:space="preserve">
<style type="text/css">
	.st0{fill:none;stroke:#FFFFFF;stroke-miterlimit:10;}
	.st1{fill:#FFFFFF;}
	.st2{font-family:'Avenir-Black';}
	.st3{font-size:9.2711px;}
	.st4{font-family:'Avenir-Book';}
	.st5{font-size:5.057px;}
</style>
<g>
	<path class="st0" d="M14.5,28.4c-0.3,0-0.6-0.2-0.9-0.5l-4.5-5.2c-0.4-0.5-1.4-0.9-2.1-0.9H5.7c-1.1,0-1.9-0.9-1.9-1.9v-5.7
		c0-0.9,0.6-2.1,1.4-2.7L12.9,5c0.4-0.3,0.9-0.5,1.5-0.5c0.5,0,1.1,0.2,1.4,0.4l7.8,6.4c0.7,0.6,1.3,1.7,1.3,2.7v5.7
		c0,1.1-0.9,1.9-1.9,1.9h-6.6c-0.6,0-1,0.5-1,1v4.4C15.4,28.3,14.7,28.4,14.5,28.4z"/>
	<g>
		<path class="st0" d="M18,20.8v-3.1c0-1.6-1.3-2.9-2.9-2.9h-1.4c-1.6,0-2.9,1.3-2.9,2.9v5.5l3.5,4.1c0.1,0.1,0.1,0.1,0.1,0.1
			c0-0.1,0-0.1,0-0.2v-4.4c0-1.1,0.9-1.9,1.9-1.9H18z"/>
		<path class="st0" d="M19.5,16.1h-1c0.2,0.5,0.4,1.1,0.4,1.7v3.1h2.9v-2.4C21.8,17.1,20.8,16.1,19.5,16.1z"/>
		<path class="st0" d="M10.2,16.1h-1c-1.3,0-2.3,1-2.3,2.3v2.4H7c0.9,0,2.2,0.6,2.8,1.3l0,0v-4.4C9.8,17.1,10,16.6,10.2,16.1z"/>
		<path class="st0" d="M21.4,13.1c0-0.9-0.8-1.7-1.7-1.7c-0.9,0-1.7,0.8-1.7,1.7c0,0.9,0.8,1.7,1.7,1.7C20.6,14.8,21.4,14,21.4,13.1
			z"/>
		<path class="st0" d="M7.4,13.1c0,0.9,0.8,1.7,1.7,1.7c0.9,0,1.7-0.8,1.7-1.7c0-0.9-0.8-1.7-1.7-1.7C8.1,11.4,7.4,12.2,7.4,13.1z"
			/>
		<path class="st0" d="M14.4,13.5c1.3,0,2.3-1,2.3-2.3c0-1.3-1-2.3-2.3-2.3c-1.3,0-2.3,1-2.3,2.3C12,12.5,13.1,13.5,14.4,13.5z"/>
	</g>
</g>
<text transform="matrix(1 0 0 1 27.144 16.7778)" class="st1 st2 st3">Sistema de Juntas</text>
<text transform="matrix(1 0 0 1 27.144 23.791)" class="st1 st4 st5">Banco Nacional de Costa Rica</text>
</svg>
